<?xml version="1.0" standalone="no"?>
<!DOCTYPE svg PUBLIC "-//W3C//DTD SVG 20010904//EN"
 "http://www.w3.org/TR/2001/REC-SVG-20010904/DTD/svg10.dtd">
<svg version="1.0" xmlns="http://www.w3.org/2000/svg"
 width="180.000000pt" height="197.000000pt" viewBox="0 0 180.000000 197.000000"
 preserveAspectRatio="xMidYMid meet">
<metadata>
Created by potrace 1.10, written by Peter Selinger 2001-2011
</metadata>
<g transform="translate(0.000000,197.000000) scale(0.100000,-0.100000)"
fill="#6aa84f" stroke="none">
<path d="M1706 1948 c-18 -25 -21 -94 -6 -133 20 -53 102 -103 96 -58 -3 16
-34 34 -48 27 -4 -3 -10 1 -14 7 -5 8 -3 9 6 4 9 -5 10 -2 5 15 -22 68 -7 134
33 148 26 10 26 10 4 11 -13 1 -33 -9 -43 -21 l-20 -23 11 23 c14 29 -4 29
-24 0z m71 -184 c-3 -3 -12 -4 -19 -1 -8 3 -5 6 6 6 11 1 17 -2 13 -5z"/>
<path d="M1461 1868 c-35 -25 -54 -31 -97 -31 -29 0 -60 6 -68 12 -11 9 -80
11 -283 6 -418 -10 -447 -12 -464 -37 -3 -5 -22 -11 -42 -15 -29 -4 -45 1 -85
27 -28 18 -53 32 -57 31 -3 -1 -13 5 -21 14 -20 19 -44 19 -44 0 0 -20 40
-105 49 -105 4 0 8 -6 8 -14 0 -8 -3 -14 -6 -13 -4 1 -19 -8 -35 -20 l-28 -22
6 -328 c4 -180 9 -376 11 -434 4 -101 18 -159 37 -159 4 0 8 -5 8 -10 0 -13
22 -58 72 -150 20 -36 55 -102 79 -148 l43 -83 366 2 c200 2 377 5 392 7 23 4
33 16 64 81 20 42 49 102 65 134 16 32 26 64 23 70 -4 7 -3 9 1 4 5 -4 30 39
57 95 l49 102 -6 420 c-6 386 -8 423 -25 441 -26 30 -40 61 -31 71 4 5 12 21
19 36 19 45 -5 51 -57 16z m-1129 -6 c7 -16 68 -53 78 -47 6 4 9 1 8 -6 -4
-15 39 -39 67 -38 29 1 90 25 88 35 -1 10 0 10 402 19 149 3 276 8 284 11 7 2
20 -1 27 -7 8 -6 21 -9 29 -5 9 3 13 2 10 -4 -9 -15 93 -12 111 3 8 6 21 17
28 24 19 17 28 5 15 -19 -12 -23 -3 -72 11 -63 5 3 7 0 4 -8 -3 -8 3 -21 13
-28 17 -13 18 -41 22 -431 l3 -417 -32 -68 c-18 -37 -68 -141 -112 -231 l-80
-162 -41 0 c-23 0 -192 -2 -375 -6 -332 -6 -333 -6 -339 15 -3 12 -9 21 -14
21 -5 0 -9 7 -9 15 0 8 -5 15 -12 15 -6 0 -9 3 -5 6 3 3 -4 23 -17 43 -12 20
-28 52 -36 71 -8 19 -23 51 -35 70 -11 19 -27 49 -35 65 -8 17 -24 46 -36 66
-21 34 -22 50 -29 425 -4 214 -8 408 -9 431 -2 24 0 41 2 38 3 -3 18 9 33 25
29 30 29 30 12 67 -10 21 -26 48 -37 61 -11 12 -15 22 -9 22 6 0 13 -4 15 -8z"/>
<path d="M644 1748 c-4 -6 4 -21 20 -33 20 -16 25 -25 16 -30 -7 -4 -16 -2
-21 6 -4 7 -11 10 -14 7 -11 -11 5 -28 26 -28 30 0 37 31 11 48 -28 18 -28 35
-1 27 15 -5 19 -4 15 4 -9 15 -43 14 -52 -1z"/>
<path d="M710 1715 c0 -44 0 -45 33 -44 23 1 26 3 10 6 -25 5 -32 33 -8 33 8
0 15 4 15 10 0 5 -7 7 -15 4 -9 -4 -15 0 -15 9 0 9 10 18 23 20 16 3 13 5 -10
6 -33 1 -33 0 -33 -44z"/>
<path d="M784 1746 c-11 -28 1 -71 20 -74 20 -4 44 14 32 25 -4 4 -10 2 -14
-4 -14 -22 -35 3 -28 31 5 22 11 26 29 21 17 -5 19 -4 7 4 -21 15 -40 14 -46
-3z"/>
<path d="M862 1748 c-17 -17 -15 -53 3 -72 20 -20 44 -10 52 22 10 43 -27 78
-55 50z m48 -37 c-1 -16 -19 -33 -29 -27 -12 8 -15 49 -4 60 7 7 33 -20 33
-33z"/>
<path d="M933 1713 c-1 -40 0 -43 6 -18 l8 30 13 -27 c17 -37 27 -35 28 4 1
24 -2 28 -9 18 -8 -13 -10 -13 -19 0 -5 8 -10 21 -10 28 0 6 -4 12 -8 12 -5 0
-9 -21 -9 -47z"/>
<path d="M970 1750 c0 -5 5 -10 10 -10 6 0 10 5 10 10 0 6 -4 10 -10 10 -5 0
-10 -4 -10 -10z"/>
<path d="M1009 1743 c0 -10 -2 -28 -3 -41 -3 -27 27 -48 41 -29 17 21 21 41
12 65 -10 27 -49 30 -50 5z m39 -31 c-5 -41 -28 -39 -28 2 0 28 3 34 16 29 9
-3 14 -15 12 -31z"/>
<path d="M1090 1722 c-7 -20 -15 -43 -17 -49 -3 -7 0 -13 6 -13 6 0 11 7 11
15 0 20 26 19 34 -1 12 -32 17 -5 6 35 -14 54 -24 57 -40 13z m24 -7 c3 -8 1
-15 -4 -15 -6 0 -10 7 -10 15 0 8 2 15 4 15 2 0 6 -7 10 -15z"/>
<path d="M1157 1753 c-11 -10 -8 -93 3 -93 6 0 10 9 10 20 0 11 4 20 9 20 5 0
13 -9 16 -20 3 -11 11 -20 16 -20 6 0 5 8 -1 21 -7 11 -9 28 -6 36 11 27 -28
56 -47 36z m43 -22 c0 -5 -7 -11 -15 -15 -9 -3 -15 0 -15 9 0 8 7 15 15 15 8
0 15 -4 15 -9z"/>
<path d="M1226 1745 c3 -11 10 -36 14 -55 7 -34 12 -31 23 15 3 11 8 28 12 38
4 10 3 17 -4 17 -6 0 -11 -7 -11 -15 0 -20 -10 -19 -27 3 -14 16 -14 16 -7 -3z"/>
<path d="M398 1744 c-5 -4 -8 -20 -8 -36 0 -27 2 -28 45 -28 l45 0 -1 38 c-2
30 -3 32 -6 10 -3 -16 -11 -28 -19 -28 -11 0 -13 6 -9 20 4 11 2 20 -4 20 -6
0 -11 -9 -11 -19 0 -33 -19 -33 -22 0 -2 17 -6 27 -10 23z"/>
<path d="M450 1666 c0 -3 6 -15 13 -26 14 -25 -3 -41 -35 -32 -15 3 -18 10
-14 28 4 13 2 24 -3 24 -30 0 -22 -55 9 -65 44 -14 79 37 45 65 -8 7 -15 10
-15 6z"/>
<path d="M553 1584 c-8 -4 -6 -17 7 -47 19 -41 19 -42 -1 -49 -19 -7 -20 -15
-15 -200 3 -106 6 -226 6 -266 1 -54 7 -83 24 -115 13 -23 42 -78 66 -122 23
-44 47 -85 52 -92 6 -8 74 -10 240 -8 l231 4 23 41 c13 23 24 48 24 55 0 7 3
15 8 17 4 2 26 44 49 93 l42 90 -4 254 c-3 223 -6 256 -20 264 -13 7 -15 17
-10 48 7 40 -7 53 -32 28 -7 -7 -97 -12 -264 -13 -190 -1 -261 -5 -281 -15
-15 -8 -25 -18 -21 -23 7 -13 -34 9 -74 38 -17 13 -33 24 -35 23 -2 0 -8 -3
-15 -5z m87 -74 c10 -6 32 -2 60 11 38 17 67 19 236 20 107 0 209 -3 228 -6
19 -4 43 -2 55 4 17 10 21 9 21 -5 0 -9 8 -28 19 -42 16 -24 18 -51 20 -268
l2 -240 -64 -133 -65 -133 -99 -4 -99 -3 -1 140 c0 76 3 139 8 139 5 0 9 -7 9
-15 0 -8 12 -29 28 -45 78 -88 217 -9 197 111 -4 22 -11 39 -16 39 -5 0 -9 7
-9 15 0 8 -5 15 -10 15 -9 0 35 65 60 90 31 31 42 51 33 62 -14 17 -25 81 -14
73 5 -3 13 5 17 17 5 18 -2 31 -43 68 -62 57 -133 94 -162 85 -16 -5 -21 -2
-21 11 0 15 -8 16 -62 10 -64 -7 -168 -47 -189 -72 -6 -8 -28 -14 -49 -14 -50
0 -100 -35 -128 -90 -12 -25 -26 -45 -30 -45 -13 0 -1 159 14 176 18 20 18 43
-1 59 -8 7 -15 17 -15 23 0 5 12 -3 27 -17 15 -15 34 -31 43 -36z m370 0 c8
-5 11 -10 5 -10 -5 0 -17 5 -25 10 -8 5 -10 10 -5 10 6 0 17 -5 25 -10z m-70
-10 c-19 -4 -44 -10 -55 -14 -13 -5 -11 -2 5 8 14 8 39 15 55 14 29 0 29 0 -5
-8z m6 -25 c-3 -9 0 -15 9 -15 8 0 15 7 15 15 0 18 7 18 68 3 49 -12 135 -61
165 -95 15 -17 15 -25 5 -54 -13 -39 -28 -52 -44 -38 -6 5 -20 7 -30 3 -16 -5
-15 -2 4 15 l23 20 -25 26 c-27 27 -50 31 -90 15 -19 -7 -26 -17 -26 -37 l0
-28 -201 -3 -201 -3 7 23 c15 48 76 88 123 79 15 -3 44 18 38 28 -2 3 7 7 20
7 13 1 24 -2 24 -7 0 -5 7 -9 15 -9 8 0 15 5 15 10 0 6 -4 10 -10 10 -5 0 -10
5 -10 10 0 6 8 10 18 10 10 0 22 4 28 9 5 5 20 11 34 14 14 2 27 5 29 6 2 0 1
-6 -3 -14z m-96 -2 c-8 -3 -24 -10 -35 -15 -20 -9 -20 -9 -1 6 11 9 27 16 35
15 14 0 14 -1 1 -6z m-123 -49 c-3 -3 -12 -4 -19 -1 -8 3 -5 6 6 6 11 1 17 -2
13 -5z m396 -89 c-1 -5 -12 -11 -24 -13 -31 -5 -71 7 -63 19 8 13 90 7 87 -6z
m-498 -44 c16 -7 14 -9 -13 -14 -18 -4 -32 -12 -32 -18 0 -7 7 -8 18 -4 9 4
81 9 160 11 78 2 147 6 152 9 6 4 10 -13 10 -42 0 -27 6 -55 13 -63 11 -13
-21 5 -68 37 -24 16 -79 17 -106 1 -17 -10 -23 -10 -26 0 -7 19 -86 15 -114
-6 -48 -37 -54 -34 -50 20 2 30 8 51 17 55 8 3 11 9 8 14 -6 11 3 11 31 0z
m325 -3 c0 -11 -12 -10 -30 2 -12 7 -10 9 8 7 12 0 22 -5 22 -9z m279 -20 c6
-17 8 -29 5 -25 -3 3 -30 -24 -59 -60 l-53 -66 24 -35 c23 -34 31 -83 18 -117
-8 -21 -56 -45 -89 -45 -42 0 -85 50 -85 99 0 46 16 88 44 114 15 14 20 30 18
71 0 29 -2 59 -4 67 -2 9 7 15 25 17 17 2 27 -1 28 -10 0 -7 1 -37 2 -67 1
-31 7 -56 13 -58 7 -2 26 21 44 52 23 39 37 55 47 51 12 -5 14 -1 9 19 -9 36
0 31 13 -7z m-203 -51 c-2 -35 -11 -65 -27 -92 -13 -22 -25 -43 -25 -47 -1 -5
-2 -12 -3 -18 0 -5 -5 -10 -10 -10 -6 0 -7 209 -1 225 0 1 15 -1 34 -3 l34 -4
-2 -51z m99 53 c-3 -5 4 -10 15 -10 16 0 20 -4 16 -16 -3 -9 -6 -20 -6 -25 0
-5 -7 -9 -16 -9 -9 0 -14 6 -11 13 3 8 1 20 -3 27 -8 13 -5 30 6 30 3 0 2 -4
-1 -10z m-390 -92 c2 -13 6 -39 8 -58 4 -33 4 -33 5 7 3 67 8 73 63 73 27 0
49 -4 49 -9 0 -5 9 -13 20 -16 13 -4 20 -15 20 -31 0 -21 9 -29 33 -25 4 0 7
-4 7 -9 0 -6 -10 -10 -22 -11 -20 0 -21 -1 -5 -8 17 -6 17 -8 3 -20 -21 -18
-20 -33 2 -30 36 3 54 -1 49 -13 -2 -7 -11 -12 -21 -10 -10 2 -16 -4 -16 -17
0 -14 -5 -19 -15 -15 -9 4 -15 1 -15 -7 0 -11 -31 -14 -157 -13 l-158 2 0 97
c0 81 3 98 17 106 24 13 27 12 23 -16 -1 -14 2 -25 8 -25 5 0 7 15 4 35 l-6
35 49 0 c43 0 50 -3 55 -22z m197 -226 c-8 -2 -12 -39 -12 -123 l0 -120 -106
3 -105 3 -45 85 c-25 47 -54 99 -64 116 l-18 31 52 6 c28 3 102 4 164 1 73 -4
112 -2 112 5 0 6 8 7 17 4 11 -4 12 -8 5 -11z"/>
<path d="M870 1415 c-7 -9 -10 -18 -7 -22 8 -7 37 15 37 28 0 14 -16 11 -30
-6z"/>
<path d="M916 1415 c-3 -8 -2 -15 3 -15 5 0 14 7 21 15 10 12 10 15 -3 15 -8
0 -17 -7 -21 -15z"/>
<path d="M946 1395 c-3 -8 -2 -15 3 -15 5 0 14 7 21 15 10 12 10 15 -3 15 -8
0 -17 -7 -21 -15z"/>
<path d="M780 1370 c-16 -13 -20 -20 -10 -19 16 0 50 22 50 33 0 11 -14 6 -40
-14z"/>
<path d="M869 1364 c-12 -14 -11 -16 5 -13 11 2 21 10 24 17 5 17 -13 15 -29
-4z"/>
<path d="M800 1340 c-19 -15 -21 -20 -8 -20 9 0 24 7 32 16 31 30 13 33 -24 4z"/>
<path d="M688 1183 c7 -3 16 -2 19 1 4 3 -2 6 -13 5 -11 0 -14 -3 -6 -6z"/>
<path d="M833 1163 c22 -4 27 -9 27 -34 0 -16 -5 -29 -12 -29 -8 0 -9 -3 -3
-8 6 -4 12 -19 13 -34 3 -27 2 -28 -49 -28 -64 0 -61 -5 9 -13 l52 -6 0 79 0
80 -32 -1 c-31 -2 -31 -2 -5 -6z"/>
<path d="M785 1130 c3 -5 8 -10 11 -10 2 0 4 5 4 10 0 6 -5 10 -11 10 -5 0 -7
-4 -4 -10z"/>
<path d="M620 1075 c0 -14 5 -25 11 -25 5 0 8 4 4 9 -3 5 7 12 22 14 l28 4
-28 2 c-16 0 -25 5 -22 11 3 6 1 10 -4 10 -6 0 -11 -11 -11 -25z"/>
<path d="M760 1089 c0 -5 5 -7 10 -4 6 3 10 8 10 11 0 2 -4 4 -10 4 -5 0 -10
-5 -10 -11z"/>
<path d="M808 1073 c7 -3 16 -2 19 1 4 3 -2 6 -13 5 -11 0 -14 -3 -6 -6z"/>
<path d="M616 1020 c-4 -8 -9 -21 -12 -27 -3 -7 -1 -13 5 -13 6 0 11 6 11 14
0 18 22 26 67 26 20 0 33 3 29 7 -14 15 -95 9 -100 -7z"/>
<path d="M915 1030 c-16 -7 -17 -9 -3 -9 9 -1 20 4 23 9 7 11 7 11 -20 0z"/>
<path d="M734 1004 c3 -8 2 -12 -3 -9 -5 3 -12 1 -16 -5 -3 -5 3 -10 14 -10
14 0 21 6 21 20 0 11 -5 20 -11 20 -6 0 -8 -7 -5 -16z"/>
<path d="M876 1001 c-4 -7 -5 -15 -2 -18 9 -9 19 4 14 18 -4 11 -6 11 -12 0z"/>
<path d="M648 983 c12 -2 30 -2 40 0 9 3 -1 5 -23 4 -22 0 -30 -2 -17 -4z"/>
<path d="M778 983 c12 -2 30 -2 40 0 9 3 -1 5 -23 4 -22 0 -30 -2 -17 -4z"/>
<path d="M395 1569 c-3 -4 9 -9 27 -11 l33 -3 -32 -15 c-45 -20 -41 -30 12
-30 25 0 45 4 45 9 0 4 -12 6 -27 4 l-28 -4 28 21 c15 12 27 25 27 28 0 10
-80 11 -85 1z"/>
<path d="M1406 1505 c-8 -23 4 -45 26 -45 11 0 22 8 25 20 8 31 24 24 18 -7
-6 -26 -6 -27 9 -9 11 14 13 24 5 37 -13 26 -27 24 -41 -6 -6 -14 -15 -25 -20
-25 -12 0 -10 24 4 38 9 9 8 12 -4 12 -9 0 -18 -7 -22 -15z"/>
<path d="M390 1460 c0 -29 2 -30 45 -30 44 0 45 1 44 33 -1 29 -2 29 -8 8 -9
-35 -29 -37 -34 -4 l-4 28 -2 -27 c-1 -35 -21 -37 -21 -3 0 14 -4 25 -10 25
-5 0 -10 -13 -10 -30z"/>
<path d="M1412 1428 c-7 -7 -12 -17 -12 -24 0 -16 29 -39 38 -29 4 4 1 10 -5
12 -17 6 -16 30 1 36 8 3 22 0 32 -8 15 -11 16 -15 5 -29 -8 -10 -9 -16 -3
-16 6 0 16 8 21 18 20 38 -45 72 -77 40z"/>
<path d="M390 1400 c0 -5 20 -10 45 -10 25 0 45 5 45 10 0 6 -20 10 -45 10
-25 0 -45 -4 -45 -10z"/>
<path d="M395 1360 c-10 -30 13 -52 49 -48 24 2 32 8 34 27 4 24 -13 50 -25
38 -4 -4 -1 -13 5 -19 13 -13 -2 -38 -23 -38 -19 0 -38 27 -25 35 13 8 13 25
1 25 -5 0 -13 -9 -16 -20z"/>
<path d="M1418 1343 c13 -3 22 -12 22 -23 0 -11 -9 -20 -22 -23 -13 -2 0 -5
27 -5 39 -1 45 1 28 8 -25 10 -22 36 5 43 10 3 -5 5 -33 4 -27 0 -40 -2 -27
-4z"/>
<path d="M394 1275 c-8 -20 2 -45 19 -45 8 0 19 12 25 26 7 14 17 22 23 18 8
-4 8 -9 0 -17 -6 -6 -11 -18 -11 -26 1 -12 6 -10 20 8 16 18 18 27 9 37 -17
20 -36 17 -53 -8 -9 -12 -19 -19 -22 -15 -4 4 -1 13 6 22 9 11 9 15 1 15 -6 0
-14 -7 -17 -15z"/>
<path d="M1410 1255 c-18 -22 -8 -47 24 -58 25 -8 32 -7 48 13 17 21 17 24 2
41 -20 23 -57 25 -74 4z m60 -10 c15 -18 5 -35 -21 -35 -24 0 -37 29 -18 41
19 12 25 11 39 -6z"/>
<path d="M460 1181 c0 -6 5 -13 10 -16 6 -3 10 1 10 9 0 9 -4 16 -10 16 -5 0
-10 -4 -10 -9z"/>
<path d="M1413 1173 c-20 -7 -15 -51 6 -63 28 -14 38 -13 62 11 20 20 20 22 3
40 -16 18 -45 23 -71 12z m64 -36 c-5 -17 -36 -21 -53 -6 -14 12 -14 14 1 26
20 14 59 0 52 -20z"/>
<path d="M390 1136 c0 -36 1 -38 13 -22 10 14 23 17 45 14 18 -2 32 -1 32 4 0
4 -14 8 -31 8 -19 0 -37 7 -45 18 -12 15 -13 13 -14 -22z"/>
<path d="M420 1074 l35 -17 -32 -10 c-18 -5 -33 -14 -33 -18 0 -11 4 -11 32 0
13 5 32 12 42 16 17 5 18 8 5 19 -8 8 -30 17 -49 20 l-35 7 35 -17z"/>
<path d="M1438 1083 c-33 -4 -38 -8 -38 -29 0 -13 5 -24 10 -24 6 0 10 9 10
20 0 16 7 20 35 20 19 0 35 5 35 10 0 6 -3 9 -7 8 -5 -1 -25 -3 -45 -5z"/>
<path d="M420 1010 c-20 -5 -25 -12 -25 -35 0 -27 3 -30 36 -33 39 -3 55 14
44 48 -7 23 -23 28 -55 20z m39 -29 c15 -26 -18 -41 -48 -22 -12 8 -12 12 -2
25 18 21 38 20 50 -3z"/>
<path d="M396 913 c-15 -15 -5 -54 16 -62 44 -16 76 9 62 51 -6 21 -35 21 -42
-1 -3 -8 0 -11 7 -7 18 12 34 -4 20 -20 -13 -16 -28 -18 -48 -5 -12 8 -12 12
-2 24 12 15 0 33 -13 20z"/>
<path d="M582 678 c-25 -27 -30 -47 -7 -28 12 10 15 10 15 0 0 -8 8 -10 21 -7
20 5 21 3 16 -31 -5 -32 -4 -35 7 -19 7 9 18 17 24 17 6 0 14 5 18 11 4 8 -1
9 -16 4 -18 -6 -22 -4 -17 7 3 8 -5 27 -17 42 l-21 27 -23 -23z m33 -8 c3 -5
-1 -10 -9 -10 -9 0 -16 5 -16 10 0 6 4 10 9 10 6 0 13 -4 16 -10z"/>
<path d="M1130 650 c0 -5 5 -10 10 -10 6 0 10 5 10 10 0 6 -4 10 -10 10 -5 0
-10 -4 -10 -10z"/>
<path d="M1201 653 c2 -22 28 -75 28 -60 1 10 11 21 23 26 22 8 22 9 -9 25
-36 18 -43 20 -42 9z m34 -23 c3 -5 1 -10 -4 -10 -6 0 -11 5 -11 10 0 6 2 10
4 10 3 0 8 -4 11 -10z"/>
<path d="M1170 625 c0 -6 7 -19 15 -29 12 -15 12 -22 3 -34 -10 -12 -9 -14 7
-10 13 2 19 10 17 23 -4 21 -42 67 -42 50z"/>
<path d="M663 593 c-26 -18 -31 -38 -8 -29 11 4 19 -3 25 -19 11 -28 20 -31
38 -13 9 9 12 7 12 -11 0 -12 4 -20 9 -17 5 3 7 15 4 26 -4 14 0 20 11 20 10
0 14 5 10 11 -4 8 -9 8 -17 0 -18 -18 -29 -13 -22 10 5 15 4 19 -4 15 -6 -4
-11 -16 -11 -26 0 -10 -5 -22 -11 -26 -8 -5 -9 6 -4 35 7 44 2 48 -32 24z m27
-13 c0 -5 -4 -10 -10 -10 -5 0 -10 5 -10 10 0 6 5 10 10 10 6 0 10 -4 10 -10z"/>
<path d="M1144 584 c16 -39 18 -54 6 -54 -6 0 -14 9 -17 20 -3 11 -9 20 -14
20 -14 0 -10 -16 10 -41 16 -20 21 -21 34 -11 12 11 13 19 5 43 -5 16 -15 32
-21 36 -7 4 -8 0 -3 -13z"/>
<path d="M1076 552 c-14 -3 -17 -10 -12 -33 6 -33 -9 -40 -19 -9 -8 24 -25 27
-25 4 0 -8 5 -12 10 -9 6 3 10 1 10 -4 0 -6 -7 -11 -15 -11 -9 0 -15 -9 -15
-22 1 -22 1 -22 15 -4 12 16 17 17 30 6 11 -9 15 -9 15 -1 0 7 4 10 9 7 5 -3
20 3 32 14 13 11 18 19 12 20 -7 0 -13 9 -13 19 0 23 -8 29 -34 23z m24 -16
c0 -11 -19 -15 -25 -6 -3 5 1 10 9 10 9 0 16 -2 16 -4z m5 -36 c-3 -5 -10 -10
-16 -10 -5 0 -9 5 -9 10 0 6 7 10 16 10 8 0 12 -4 9 -10z"/>
<path d="M778 533 c-8 -10 -21 -29 -27 -43 -12 -25 -12 -25 13 3 25 27 48 39
27 13 -8 -10 -8 -16 2 -25 8 -6 17 -8 20 -4 4 3 7 1 7 -6 0 -7 10 -11 22 -9
17 2 23 10 25 31 2 31 -21 47 -39 29 -8 -8 -5 -17 13 -31 20 -17 21 -20 7 -21
-10 0 -18 5 -18 10 0 6 -7 10 -16 10 -8 0 -13 4 -10 9 4 5 2 19 -2 31 -8 20
-9 20 -24 3z m82 -23 c0 -5 -4 -10 -10 -10 -5 0 -10 5 -10 10 0 6 5 10 10 10
6 0 10 -4 10 -10z"/>
<path d="M890 504 c0 -8 5 -12 10 -9 6 3 10 1 10 -4 0 -6 -7 -11 -15 -11 -8 0
-15 -2 -15 -4 0 -2 -3 -13 -7 -23 -6 -16 -5 -16 10 -4 14 11 20 11 33 0 15
-12 16 -11 10 9 -3 12 -9 31 -12 42 -6 24 -24 27 -24 4z"/>
<path d="M960 470 c0 -5 5 -10 10 -10 6 0 10 5 10 10 0 6 -4 10 -10 10 -5 0
-10 -4 -10 -10z"/>
<path d="M1560 831 c0 -6 -29 -70 -64 -143 -35 -73 -83 -172 -105 -220 -22
-49 -44 -88 -48 -88 -36 -2 -531 -11 -655 -13 l-157 -2 -31 60 c-17 33 -58
112 -91 175 -33 63 -74 141 -90 173 -30 59 -45 74 -34 35 4 -16 3 -19 -3 -10
-7 11 -18 5 -49 -25 -21 -21 -66 -64 -100 -95 l-61 -58 -5 -135 c-2 -74 -2
-135 0 -135 3 0 19 13 36 29 55 52 102 91 108 91 6 0 41 -89 101 -259 l43
-123 475 6 c261 3 524 6 583 6 93 0 108 2 114 18 3 9 26 69 50 132 25 63 54
141 66 172 12 32 26 56 31 55 6 -2 17 -18 25 -35 21 -41 62 -41 50 1 0 1 5 16
11 32 16 42 39 179 31 183 -4 1 -27 20 -51 42 -24 22 -47 40 -51 40 -3 0 -22
14 -40 30 -53 48 -89 72 -89 61z m59 -71 c19 -16 39 -26 45 -23 6 3 8 3 4 -2
-8 -8 63 -66 94 -78 16 -5 16 -10 4 -44 -7 -21 -16 -56 -20 -78 -11 -64 -16
-74 -31 -68 -8 3 -13 8 -10 12 2 4 -7 25 -20 47 -15 25 -24 32 -25 21 0 -9 -4
-25 -10 -35 -14 -25 -120 -300 -132 -343 l-10 -36 -86 -6 c-48 -3 -285 -6
-527 -6 -242 -1 -457 -4 -477 -7 -35 -6 -37 -5 -57 37 -12 23 -21 49 -21 56 0
11 -54 158 -80 218 -5 11 -12 30 -15 43 -5 17 -12 22 -23 17 -14 -5 -15 -4 -5
6 7 7 13 17 13 22 0 9 -40 -23 -108 -84 l-32 -30 1 102 2 101 91 89 c50 49 95
88 100 86 5 -2 40 -63 78 -137 38 -74 88 -171 111 -215 l42 -80 235 1 c604 2
620 3 627 22 8 24 33 80 96 212 30 63 62 136 72 163 10 26 23 47 29 47 6 -1
26 -14 45 -30z"/>
<path d="M1621 696 c-6 -7 -9 -21 -5 -30 7 -18 29 -21 39 -6 3 6 14 10 23 10
14 -1 13 -4 -6 -20 -12 -10 -18 -21 -13 -24 14 -9 43 24 37 41 -3 8 -6 17 -6
19 0 10 -25 3 -42 -13 -17 -15 -18 -15 -18 0 0 10 5 17 10 17 6 0 10 5 10 10
0 14 -16 12 -29 -4z"/>
<path d="M270 655 c-7 -8 -18 -15 -26 -15 -7 0 -16 -5 -20 -12 -5 -8 0 -9 15
-5 14 3 24 0 28 -9 7 -19 42 -18 50 2 7 18 -6 45 -24 51 -5 2 -16 -3 -23 -12z
m30 -20 c0 -8 -4 -15 -9 -15 -13 0 -22 16 -14 24 11 11 23 6 23 -9z"/>
<path d="M1580 624 c-11 -12 -10 -18 3 -31 15 -15 18 -15 35 0 10 9 22 14 26
10 4 -4 -3 -15 -16 -25 -17 -13 -19 -18 -7 -18 9 0 23 8 33 19 15 17 15 19 0
31 -13 11 -19 11 -36 1 -11 -7 -23 -9 -26 -5 -4 4 -1 9 6 11 14 5 17 23 3 23
-5 0 -14 -7 -21 -16z"/>
<path d="M297 581 c-15 -10 -30 -20 -33 -24 -8 -7 14 -47 26 -47 6 0 5 9 -2
20 -16 26 -2 39 16 14 8 -10 18 -16 22 -12 4 4 1 14 -5 22 -8 9 -8 16 -2 20 6
4 15 -3 21 -15 16 -29 23 -17 9 15 -14 30 -15 30 -52 7z"/>
<path d="M1539 559 c-10 -19 -7 -25 17 -45 16 -13 32 -23 36 -24 13 0 41 50
33 58 -4 4 -9 3 -12 -3 -9 -25 -22 -37 -33 -30 -8 5 -7 12 6 26 9 10 12 19 6
19 -6 0 -15 -8 -21 -17 -14 -25 -25 -9 -11 16 7 13 7 21 1 21 -6 0 -15 -10
-22 -21z"/>
<path d="M321 507 c-19 -11 -29 -23 -22 -25 6 -2 23 3 36 12 30 20 35 20 35 0
0 -10 -6 -14 -15 -10 -15 5 -35 -21 -35 -46 1 -9 5 -7 14 5 7 9 20 17 29 17
20 0 29 27 17 51 -13 23 -16 23 -59 -4z"/>
<path d="M1500 495 c-16 -19 -8 -40 25 -61 20 -13 28 -14 40 -4 17 14 20 46 4
56 -7 4 -9 -2 -7 -17 2 -18 -2 -24 -16 -24 -23 0 -47 35 -28 42 14 5 17 23 3
23 -5 0 -14 -7 -21 -15z"/>
<path d="M379 438 c-1 -7 -2 -21 -2 -31 0 -10 -5 -16 -11 -14 -6 2 -10 11 -8
21 2 9 -2 16 -8 16 -17 0 -7 -54 10 -57 8 -2 28 8 44 22 25 20 28 26 17 39
-16 19 -40 21 -42 4z m31 -17 c0 -6 -4 -13 -10 -16 -5 -3 -10 1 -10 9 0 9 5
16 10 16 6 0 10 -4 10 -9z"/>
<path d="M1462 428 c-18 -18 -15 -32 11 -54 27 -24 46 -25 61 -2 8 13 7 21 -2
30 -9 9 -12 7 -12 -10 0 -27 -21 -28 -45 -2 -16 18 -16 20 -1 26 9 3 16 10 16
15 0 13 -14 11 -28 -3z"/>
<path d="M402 368 c-26 -16 -31 -25 -26 -42 9 -29 24 -44 24 -24 0 9 -5 20
-10 23 -11 7 -4 25 9 25 4 0 13 -10 20 -22 11 -22 11 -22 6 5 -6 31 2 35 21
10 11 -15 13 -16 14 -2 0 8 -6 22 -12 31 -12 14 -16 13 -46 -4z"/>
<path d="M1440 350 c14 -11 28 -20 33 -20 15 0 7 -30 -9 -30 -8 0 -22 7 -30
15 -17 16 -34 20 -34 7 0 -4 16 -16 35 -26 28 -15 37 -17 50 -6 22 19 18 36
-14 59 -37 27 -65 27 -31 1z"/>
<path d="M437 291 c-15 -16 -27 -32 -27 -35 0 -11 79 -6 86 6 5 8 -2 9 -24 5
-38 -8 -40 -1 -10 30 12 13 17 23 12 23 -5 0 -21 -13 -37 -29z"/>
<path d="M1370 274 c-11 -12 -10 -18 3 -31 15 -15 18 -15 35 0 23 21 32 21 32
2 0 -8 -7 -15 -15 -15 -8 0 -15 -4 -15 -10 0 -17 29 -11 38 8 19 35 -17 59
-46 30 -6 -6 -15 -9 -19 -5 -3 4 2 14 13 22 16 12 16 14 3 15 -9 0 -22 -7 -29
-16z"/>
<path d="M519 258 c-6 -15 -5 -68 2 -68 5 0 9 4 9 9 0 5 10 12 23 14 l22 4
-22 2 c-28 1 -31 21 -3 21 11 0 20 5 20 10 0 8 -48 15 -51 8z"/>
<path d="M590 209 c0 -29 4 -48 10 -44 5 3 7 12 3 20 -8 23 14 18 31 -7 11
-16 16 -18 16 -7 0 8 -5 20 -12 27 -9 9 -9 12 0 12 18 0 15 37 -4 44 -37 14
-44 7 -44 -45z m44 22 c3 -5 -1 -12 -10 -15 -22 -9 -24 -8 -24 9 0 16 25 21
34 6z"/>
<path d="M799 253 c-1 -5 -1 -19 0 -33 2 -24 1 -24 -14 -6 -8 11 -15 23 -15
28 0 4 -4 8 -9 8 -12 0 -19 -67 -9 -83 8 -13 11 -4 9 28 -2 17 2 15 23 -10
l25 -30 1 53 c0 28 -2 52 -5 52 -3 0 -5 -3 -6 -7z"/>
<path d="M837 241 c-16 -20 -14 -60 4 -72 18 -12 41 -7 47 9 3 9 -3 11 -22 6
-23 -5 -26 -3 -26 19 0 31 16 43 35 27 12 -10 15 -9 15 3 0 22 -36 28 -53 8z"/>
<path d="M915 252 c-3 -3 -5 -25 -5 -49 0 -41 1 -43 31 -43 18 0 28 4 24 10
-4 6 -15 8 -26 5 -13 -4 -19 -2 -19 9 0 9 9 16 20 16 11 0 20 5 20 10 0 6 -9
10 -20 10 -11 0 -20 5 -20 10 0 6 12 10 27 10 14 0 23 3 19 7 -8 8 -44 12 -51
5z"/>
<path d="M1138 228 l-4 -33 -13 28 c-20 39 -28 34 -29 -18 -1 -25 2 -45 7 -45
5 0 6 11 3 25 -2 15 0 25 7 25 6 0 11 -6 11 -14 0 -7 7 -19 15 -26 13 -11 15
-6 15 39 0 57 -7 68 -12 19z"/>
<path d="M677 208 c-9 -23 -14 -44 -11 -47 8 -9 24 22 24 47 0 14 4 21 11 17
6 -4 8 -14 5 -22 -3 -8 1 -21 10 -30 17 -18 32 -10 17 9 -6 7 -13 25 -17 41
-9 38 -20 34 -39 -15z"/>
<path d="M1024 223 c-4 -16 -11 -34 -17 -41 -5 -7 -6 -16 -2 -20 4 -4 10 -1
12 6 3 6 13 12 23 12 10 0 20 -6 23 -12 2 -7 7 -10 11 -7 9 8 -23 89 -35 89
-5 0 -12 -12 -15 -27z m26 -18 c0 -8 -4 -15 -10 -15 -5 0 -10 7 -10 15 0 8 5
15 10 15 6 0 10 -7 10 -15z"/>
<path d="M1170 204 c0 -43 1 -45 27 -42 51 6 48 88 -2 88 -23 0 -25 -4 -25
-46z m50 1 c0 -22 -22 -40 -34 -28 -3 4 -6 16 -6 28 0 12 3 24 6 28 12 12 34
-6 34 -28z"/>
<path d="M515 170 c3 -5 17 -10 31 -10 13 0 24 5 24 10 0 6 -14 10 -31 10 -17
0 -28 -4 -24 -10z"/>
<path d="M98 93 c6 -2 18 -2 25 0 6 3 1 5 -13 5 -14 0 -19 -2 -12 -5z"/>
</g>
</svg>
